<svg xmlns="http://www.w3.org/2000/svg" width="1003.389" height="205.423" viewBox="0 0 1003.389 205.423">
  <g id="Group_1166122" data-name="Group 1166122" transform="translate(-155.006 -656.053)">
    <g id="Group_1166106" data-name="Group 1166106" transform="translate(155.006 656.053)">
      <g id="Group_1166101" data-name="Group 1166101" transform="translate(446.219 55.426)">
        <g id="Group_366" data-name="Group 366" transform="translate(57.234 0)">
          <path id="Path_116" data-name="Path 116" d="M139.978,129.834V102.16c0-16.435-38.434-22.133-50.973-37.4q0,13,.01,25.987c0,18.461,40.5,24.025,50.964,39.091" transform="translate(-89.005 -23.116)" fill="#2083c4" fill-rule="evenodd"/>
          <path id="Path_117" data-name="Path 117" d="M139.98,134.939V116.456c0-16.434-38.429-22.132-50.971-37.4q0,8.4.007,16.792c0,18.461,40.5,24.026,50.964,39.091" transform="translate(-89.007 -28.221)" fill="#165cc5" fill-rule="evenodd"/>
          <path id="Path_118" data-name="Path 118" d="M139.978,0V27.675c0,16.435-38.434,22.132-50.973,37.4q0-13,.01-25.988c0-18.461,40.5-24.026,50.964-39.091" transform="translate(-89.005)" fill="#2083c4" fill-rule="evenodd"/>
          <path id="Path_119" data-name="Path 119" d="M139.98,14.171V32.733c0,16.434-38.429,22.132-50.971,37.4q0-8.435.007-16.872c0-18.461,40.5-24.025,50.964-39.091" transform="translate(-89.007 -5.059)" fill="#165cc5" fill-rule="evenodd"/>
          <path id="Path_120" data-name="Path 120" d="M105.572,76.483C98.883,79.89,92.785,83.608,89.018,88.19q0-5.827-.006-11.651v-.113l.006-11.651c3.767,4.581,9.865,8.3,16.555,11.708" transform="translate(-89.008 -23.123)" fill="#0e368d" fill-rule="evenodd"/>
          <path id="Path_121" data-name="Path 121" d="M97.433,86.179a36.149,36.149,0,0,0-8.416,7.111V91.652h0V79.062a36.154,36.154,0,0,0,8.42,7.117" transform="translate(-89.008 -28.223)" fill="#006" fill-rule="evenodd"/>
        </g>
        <g id="Group_367" data-name="Group 367" transform="translate(0 19.815)">
          <path id="Path_116-2" data-name="Path 116" d="M89.005,64.756V92.431c0,16.435,38.434,22.133,50.973,37.4q0-13-.01-25.987c0-18.461-40.5-24.025-50.964-39.091" transform="translate(-89.005 -64.756)" fill="#2083c4" fill-rule="evenodd"/>
          <path id="Path_117-2" data-name="Path 117" d="M89.009,79.056V97.539c0,16.434,38.429,22.132,50.971,37.4q0-8.4-.007-16.792c0-18.461-40.5-24.026-50.964-39.091" transform="translate(-89.008 -79.056)" fill="#165cc5" fill-rule="evenodd"/>
          <path id="Path_118-2" data-name="Path 118" d="M89.005,65.079V37.4c0-16.435,38.434-22.132,50.973-37.4q0,13-.01,25.988c0,18.461-40.5,24.026-50.964,39.091" transform="translate(-89.005 41.639)" fill="#2083c4" fill-rule="evenodd"/>
          <path id="Path_119-2" data-name="Path 119" d="M89.009,70.134V51.571c0-16.434,38.429-22.132,50.971-37.4q0,8.435-.007,16.872c0,18.461-40.5,24.025-50.964,39.091" transform="translate(-89.008 27.472)" fill="#165cc5" fill-rule="evenodd"/>
          <path id="Path_120-2" data-name="Path 120" d="M89.012,76.482c6.689-3.407,12.788-7.125,16.555-11.707q0,5.827.006,11.651v.113l-.006,11.651c-3.767-4.581-9.865-8.3-16.555-11.708" transform="translate(-54.603 -23.124)" fill="#0e368d" fill-rule="evenodd"/>
          <path id="Path_121-2" data-name="Path 121" d="M89.011,86.173a36.147,36.147,0,0,0,8.416-7.111V80.7h0V93.29a36.155,36.155,0,0,0-8.42-7.117" transform="translate(-46.462 -37.41)" fill="#006" fill-rule="evenodd"/>
        </g>
      </g>
      <path id="Subtraction_4" data-name="Subtraction 4" d="M145.063,165.8l0,0H107.1L58.9,38.112c-.82-2.192-1.929-2.969-4.241-2.969a4.762,4.762,0,0,0-2.7.665,5.469,5.469,0,0,0-1.815,2.426L37.679,69.851H0L18.758,22.365c3.153-7.953,7.709-13.6,13.927-17.277C38.479,1.664,45.741,0,54.886,0c9.055,0,16.248,1.667,21.991,5.1a29.447,29.447,0,0,1,8.043,7.084,38.431,38.431,0,0,1,5.652,10.225l54.491,143.388Z" transform="translate(37.7 0)"/>
      <path id="Union_2" data-name="Union 2" d="M379.29,144.931V45.667a70.115,70.115,0,0,1,2.464-19.518,38,38,0,0,1,7.613-14.489C396.1,3.924,406.069,0,419,0h27.172A52.164,52.164,0,0,1,465.1,3.263,38.268,38.268,0,0,1,479.835,13.33,44.625,44.625,0,0,1,489.078,30a75.951,75.951,0,0,1,3.134,22.736,76,76,0,0,1-3.134,22.741,44.571,44.571,0,0,1-9.243,16.666A38.279,38.279,0,0,1,465.1,102.215a52.26,52.26,0,0,1-18.928,3.264H406.232v39.452ZM415.684,27.384a11.988,11.988,0,0,0-5.318,3.286,14.1,14.1,0,0,0-3.052,5.975,38.391,38.391,0,0,0-1.081,9.949v32.5h37.9a28.17,28.17,0,0,0,9.809-1.471,13.994,13.994,0,0,0,6.114-4.246c3.386-4.1,5.034-10.85,5.034-20.64,0-9.813-1.649-16.6-5.048-20.745a14.064,14.064,0,0,0-6.119-4.3,28.129,28.129,0,0,0-9.79-1.5H424.773A29.269,29.269,0,0,0,415.684,27.384ZM128.976,144.931V45.667a70.337,70.337,0,0,1,2.458-19.518,38.137,38.137,0,0,1,7.612-14.489C145.782,3.924,155.75,0,168.687,0h27.171a52.181,52.181,0,0,1,18.931,3.263A38.315,38.315,0,0,1,229.521,13.33,44.659,44.659,0,0,1,238.764,30,75.99,75.99,0,0,1,241.9,52.737a76.04,76.04,0,0,1-3.131,22.741,44.6,44.6,0,0,1-9.244,16.666,38.326,38.326,0,0,1-14.732,10.072,52.277,52.277,0,0,1-18.931,3.264H155.916v39.452ZM165.368,27.384a12.059,12.059,0,0,0-5.324,3.286A14.16,14.16,0,0,0,157,36.646a38.337,38.337,0,0,0-1.083,9.949v32.5h37.891a28.126,28.126,0,0,0,9.809-1.471,14.055,14.055,0,0,0,6.12-4.246c3.386-4.1,5.033-10.85,5.033-20.64,0-9.813-1.648-16.6-5.048-20.745a14.054,14.054,0,0,0-6.118-4.3,28.147,28.147,0,0,0-9.8-1.5H174.452A29.262,29.262,0,0,0,165.368,27.384ZM0,144.931V45.667A70.2,70.2,0,0,1,2.461,26.149,38.141,38.141,0,0,1,10.076,11.66C16.807,3.924,26.778,0,39.714,0H66.888A52.126,52.126,0,0,1,85.811,3.263,38.335,38.335,0,0,1,100.549,13.33,44.625,44.625,0,0,1,109.792,30a75.951,75.951,0,0,1,3.134,22.736,76,76,0,0,1-3.134,22.741,44.571,44.571,0,0,1-9.243,16.666,38.346,38.346,0,0,1-14.738,10.072,52.222,52.222,0,0,1-18.924,3.264H26.941v39.452ZM36.4,27.384a12.02,12.02,0,0,0-5.324,3.286,14.173,14.173,0,0,0-3.045,5.975,38.175,38.175,0,0,0-1.086,9.949v32.5H64.835a28.135,28.135,0,0,0,9.809-1.471,14.007,14.007,0,0,0,6.116-4.246c3.39-4.1,5.038-10.85,5.038-20.64,0-9.813-1.652-16.6-5.047-20.745a14.05,14.05,0,0,0-6.125-4.3,28.087,28.087,0,0,0-9.791-1.5H45.481A29.228,29.228,0,0,0,36.4,27.384Zm679.75,78.094V79.094h60.74c3.658,0,6.188-.566,7.518-1.689.738-.62,1.715-1.865,1.715-5.5,0-3.671-1.081-4.943-1.9-5.581-1.517-1.191-4.363-1.793-8.452-1.793H752.507a56.218,56.218,0,0,1-17.915-2.548,29.054,29.054,0,0,1-11.809-7.238,26.3,26.3,0,0,1-6.12-10.574,40.228,40.228,0,0,1-1.635-11.909c0-10.175,2.87-18.1,8.524-23.555a28.781,28.781,0,0,1,11.334-6.546A52.023,52.023,0,0,1,750.647,0h58.138V26.194H750.832c-3.553,0-6.051.629-7.428,1.869-.448.4-1.806,1.62-1.806,5.69,0,3.363.846,4.513,1.583,5.133,1.467,1.24,4.414,1.869,8.764,1.869h23.08A60.126,60.126,0,0,1,792.9,43.109a29.228,29.228,0,0,1,11.878,6.822,25.029,25.029,0,0,1,6.241,10.284,38.262,38.262,0,0,1,1.676,11.877,41.461,41.461,0,0,1-1.974,13.185,27.891,27.891,0,0,1-6.5,10.791c-6.133,6.242-15.326,9.411-27.326,9.411Zm-79.769,0a52.754,52.754,0,0,1-19.033-3.264,38.4,38.4,0,0,1-14.792-10.067,44.528,44.528,0,0,1-9.265-16.67,75.808,75.808,0,0,1-3.138-22.741A75.779,75.779,0,0,1,593.286,30a44.53,44.53,0,0,1,9.265-16.671A38.414,38.414,0,0,1,617.344,3.259,52.755,52.755,0,0,1,636.377,0h20.654a52.456,52.456,0,0,1,18.957,3.259,38.677,38.677,0,0,1,14.8,10.067A44.7,44.7,0,0,1,700.1,29.992a75.316,75.316,0,0,1,3.164,22.745A75.3,75.3,0,0,1,700.1,75.482a44.692,44.692,0,0,1-9.309,16.671,38.62,38.62,0,0,1-14.8,10.062,52.455,52.455,0,0,1-18.957,3.264Zm-7.931-77.787a14.072,14.072,0,0,0-6.124,4.3c-3.395,4.146-5.048,10.931-5.048,20.745,0,9.791,1.649,16.544,5.039,20.64a14.007,14.007,0,0,0,6.116,4.246,28.139,28.139,0,0,0,9.809,1.471h16.933a28.174,28.174,0,0,0,9.727-1.471,14.12,14.12,0,0,0,6.133-4.255c3.431-4.124,5.1-10.872,5.1-20.631,0-9.782-1.67-16.562-5.109-20.735a14.177,14.177,0,0,0-6.143-4.309,27.648,27.648,0,0,0-9.709-1.5H638.239A28.1,28.1,0,0,0,628.447,27.692Zm-120,77.787V32.264a52.22,52.22,0,0,1,1.567-13.747,24.853,24.853,0,0,1,5.408-10.393A22.616,22.616,0,0,1,525.2,1.892,42.074,42.074,0,0,1,538.671,0h43.99V26.194H544.438c-3.333,0-5.7.688-7.044,2.046s-2.006,3.7-2.006,7v70.236Z" transform="translate(190.698 60.492)"/>
      <g id="Group_1166105" data-name="Group 1166105" transform="matrix(0.087, -0.996, 0.996, 0.087, 0, 162.541)">
        <path id="Path_156" data-name="Path 156" d="M0,0V35.826C0,57.1,58.533,64.478,77.629,84.246q0-16.825-.015-33.641C77.614,26.707,15.934,19.5,0,0" transform="translate(0 0)" fill="#2083c4" fill-rule="evenodd"/>
        <path id="Path_157" data-name="Path 157" d="M0,0V23.232C0,43.888,58.524,51.05,77.625,70.242q-.007-10.553-.011-21.107C77.614,25.931,15.934,18.936,0,0" transform="translate(0 0)" fill="#165cc5" fill-rule="evenodd"/>
        <path id="Path_158" data-name="Path 158" d="M0,20.073C10.187,14.884,20.88,6.977,26.617,0q0,8.874.009,17.744v.171l-.009,17.744C20.88,28.682,10.043,24.062,0,20.073" transform="translate(50.996 48.569)" fill="#0e368d" fill-rule="evenodd"/>
        <path id="Path_159" data-name="Path 159" d="M0,11.343A69.282,69.282,0,0,0,12.395,0V17.916l0,3.752C9.122,17.678,5.1,14.631,0,11.343" transform="translate(65.22 48.569)" fill="#006" fill-rule="evenodd"/>
      </g>
    </g>
  </g>
</svg>
